<?xml version="1.0" encoding="utf-8"?>
<!-- Generator: Adobe Illustrator 24.1.2, SVG Export Plug-In . SVG Version: 6.00 Build 0)  -->
<svg version="1.1" id="Calque_1" xmlns="http://www.w3.org/2000/svg" xmlns:xlink="http://www.w3.org/1999/xlink" x="0px" y="0px"
	 viewBox="0 0 1200 400" style="enable-background:new 0 0 1200 400;" xml:space="preserve">
<style type="text/css">
	.st0{fill:#0E4166;}
</style>
<path class="st0" d="M489.15,207.52v61.38h-22.72v-61.38c0-14.84-8.06-23.64-21.07-23.64s-21.07,8.8-21.07,23.64v61.38h-22.72
	v-61.38c0-29.32,15.76-44.89,43.79-44.89S489.15,178.2,489.15,207.52z"/>
<path class="st0" d="M597.07,247.83v21.07h-86.31V138.8h85.21v21.07h-62.3v31.88h53.14v21.07h-53.14v35H597.07z"/>
<path class="st0" d="M683.06,164.46h23.82L672.44,268.9h-29.32l-34.08-104.45h23.82l24.55,84.65h1.1L683.06,164.46z"/>
<path class="st0" d="M763.59,250.58c10.26,0,18.14-3.85,23.64-13.38l18.51,9.16c-9.35,17.04-24.19,24.37-42.7,24.37
	c-29.87,0-47.64-17.41-47.64-54.05c0-37.75,18.69-54.05,47.27-54.05c28.77,0,44.34,16.49,44.34,52.77v8.61h-69.26
	C739.4,242.7,747.46,250.58,763.59,250.58z M737.93,205.68h47.27c-1.83-15.39-8.79-22.9-23.45-22.9
	C747.46,182.78,740.13,190.11,737.93,205.68z"/>
<path class="st0" d="M911.59,207.52v61.38h-22.72v-61.38c0-14.84-8.06-23.64-21.07-23.64c-13.01,0-21.07,8.8-21.07,23.64v61.38H824
	v-61.38c0-29.32,15.76-44.89,43.79-44.89C895.83,162.62,911.59,178.2,911.59,207.52z"/>
<path class="st0" d="M1013.61,254.06c-8.43,10.44-18.87,16.67-34.45,16.67c-26.94,0-39.58-15.57-39.58-39.39v-46.36h-18.32v-20.52
	h18.32V138.8h22.72v25.65h39.58v20.52h-39.58v46.36c0,11.54,6.23,18.87,17.41,18.87c7.7,0,12.83-2.75,17.41-8.61L1013.61,254.06z"/>
<path class="st0" d="M1062.92,162.81c19.42,0,33.71,8.06,41.23,23.45l-19.06,9.16c-4.03-9.16-10.81-13.01-22.17-13.01
	c-10.26,0-15.03,3.48-15.03,9.53c0,20.71,56.25,7.51,56.25,46.91c0,19.97-16.31,31.88-40.86,31.88c-19.05,0-34.63-7.15-42.33-26.2
	l19.06-7.33c3.85,10.44,12.09,13.74,23.82,13.74c11.18,0,17.96-3.3,17.96-11c0-20.52-56.25-5.5-56.25-46.36
	C1025.53,174.17,1039.83,162.81,1062.92,162.81z"/>
<path class="st0" d="M319.56,248.38h24.74v-63.4h-24.74v-20.52h47.46v83.92h22.9v20.52h-70.36V248.38z M338.43,134.96
	c0-9.35,5.31-16.31,15.76-16.31s15.76,6.96,15.76,16.31c0,9.16-5.31,16.12-15.76,16.12S338.43,144.12,338.43,134.96z"/>
<path class="st0" d="M168.34,253.68l-48.62-44.45l13.74-15.03l31.46,28.76l49.25-70.69c-9.83-7.79-22.2-12.49-35.64-12.49h-26.08
	c-31.67,0-57.58,25.91-57.58,57.58v26.08c0,31.67,25.91,57.58,57.58,57.58h26.08c31.67,0,57.58-25.91,57.58-57.58v-26.08
	c0-10.69-3.01-20.69-8.13-29.29L168.34,253.68z"/>
</svg>
